<svg xmlns="http://www.w3.org/2000/svg" viewBox="0 0 187.023 40.095">
  <defs>
    <style>
      .cls-1 {
        fill: #005bac;
      }

      .cls-1, .cls-2, .cls-3, .cls-4, .cls-5, .cls-6 {
        fill-rule: evenodd;
      }

      .cls-2 {
        fill: #f6ac1d;
      }

      .cls-3 {
        fill: #265697;
      }

      .cls-4 {
        fill: #dfac16;
      }

      .cls-5 {
        fill: #bf3126;
      }

      .cls-6 {
        fill: #fff;
      }
    </style>
  </defs>
  <g id="Group_115" data-name="Group 115" transform="translate(-651.053 -508.952)">
    <g id="iconfinder_visa_294654" transform="translate(626.042 331.136)">
      <g id="形状_1_3_" transform="translate(34.53 181.864)">
        <g id="形状_1" transform="translate(0 0)">
          <g id="Group_113" data-name="Group 113">
            <path id="Path_102" data-name="Path 102" class="cls-1" d="M99.807,182.474l-5.545,34.075h8.871l5.545-34.075H99.807Zm-13.008,0L78.341,205.91l-1-5.047v0l-.22-1.131a28.257,28.257,0,0,0-7.871-9.977,35.487,35.487,0,0,0-3.947-2.731l7.687,29.523h9.243l14.114-34.075H86.8Zm34.622,9.46c0-3.852,8.64-3.357,12.436-1.266l1.266-7.318a25.607,25.607,0,0,0-7.979-1.486c-4.4,0-14.857,1.925-14.857,11.28,0,8.8,12.27,8.914,12.27,13.536s-11.005,3.8-14.637.88l-1.32,7.649a24.849,24.849,0,0,0,10.014,1.925c6.053,0,15.187-3.136,15.187-11.666C133.8,196.61,121.421,195.785,121.421,191.934Zm36.2-9.46h-7.132a4.076,4.076,0,0,0-4.1,2.539l-13.229,31.536h9.246l1.85-5.061h11.278l1.04,5.061h8.145Zm-10.8,22.021,4.662-12.752L154.1,204.5Z" transform="translate(-65.303 -181.864)"/>
          </g>
        </g>
      </g>
      <g id="形状_1_2_" transform="translate(25.009 182.607)">
        <g id="形状_1_1_" transform="translate(0 0)">
          <g id="Group_114" data-name="Group 114">
            <path id="Path_103" data-name="Path 103" class="cls-2" d="M43.705,188.082s-.367-3.075-4.287-3.075H25.176l-.167.578a35.29,35.29,0,0,1,13.414,6.624,26.612,26.612,0,0,1,8.324,11.226Z" transform="translate(-25.009 -185.007)"/>
          </g>
        </g>
      </g>
    </g>
    <g id="iconfinder_payment_method_master_card_206680" transform="translate(773.924 508.952)">
      <g id="Master" transform="translate(0 0)">
        <path id="Rectangle-1" class="cls-3" d="M60.341,0H4.208A3.449,3.449,0,0,0,1,3.208V35.284Q1,40.1,5.811,40.1H60.341q4.811,0,4.811-4.811V4.811Q65.152,0,60.341,0Zm0,0" transform="translate(-1 0)"/>
        <path id="path2268" class="cls-4" d="M100.673,25.288a16.691,16.691,0,1,1-33.38.009v-.009a16.691,16.691,0,1,1,33.38-.009v.009Zm0,0" transform="translate(-40.713 -5.04)"/>
        <path id="path1350" class="cls-5" d="M28.037,8.425a16.872,16.872,0,0,0,.108,33.74,16.53,16.53,0,0,0,11.231-4.4h0a16.95,16.95,0,0,0,1.694-1.806H37.653a16.472,16.472,0,0,1-1.244-1.738h5.9a16.958,16.958,0,0,0,.972-1.806H35.435a16.744,16.744,0,0,1-.7-1.772h9.238a17.12,17.12,0,0,0,.474-8.963h-10.2a16.973,16.973,0,0,1,.476-1.772h9.242a16.983,16.983,0,0,0-.72-1.806H35.434a16.242,16.242,0,0,1,.958-1.772h5.893a16.907,16.907,0,0,0-1.3-1.806H37.7a15.579,15.579,0,0,1,1.674-1.7,16.533,16.533,0,0,0-11.233-4.4Zm0,0" transform="translate(-7.263 -5.047)"/>
        <path id="path4157" class="cls-6" d="M63.944,49.4l.222-1.527c-.122,0-.3.053-.458.053-.619,0-.687-.332-.647-.578l.5-3.115h.94l.227-1.689h-.886l.18-1.05H62.245c-.039.04-1.049,5.907-1.049,6.621a1.326,1.326,0,0,0,1.416,1.521,4.63,4.63,0,0,0,1.332-.235Zm0,0" transform="translate(-37.06 -24.856)"/>
        <path id="path4155" class="cls-6" d="M69.454,47.758a2.8,2.8,0,0,0,3.07,3.142,4.48,4.48,0,0,0,1.877-.295l.313-1.732a5.486,5.486,0,0,1-1.887.442c-1.908,0-1.574-1.438-1.574-1.438h3.611a13.049,13.049,0,0,0,.233-1.638,2.4,2.4,0,0,0-2.534-2.626c-1.787,0-3.11,1.946-3.11,4.146Zm3.116-2.537c1,0,.818,1.139.818,1.231H71.415c0-.118.186-1.231,1.155-1.231Zm0,0" transform="translate(-42.007 -26.126)"/>
        <path id="path4151" class="cls-6" d="M98.191,48.285l.318-1.958a4.243,4.243,0,0,1-1.47.442c-1.261,0-1.766-.973-1.766-2.018,0-2.12,1.085-3.287,2.292-3.287a3.142,3.142,0,0,1,1.632.514l.29-1.9a6.326,6.326,0,0,0-2-.441c-2.052,0-4.047,1.8-4.047,5.177,0,2.24,1.078,3.72,3.2,3.72a8.115,8.115,0,0,0,1.554-.246Zm0,0" transform="translate(-56.375 -23.743)"/>
        <path id="path4149" class="cls-6" d="M38.739,43.682a6.082,6.082,0,0,0-2.153.4l-.258,1.547a5.557,5.557,0,0,1,1.936-.317c.662,0,1.146.075,1.146.619a1.159,1.159,0,0,1-.059.452s-.522-.044-.764-.044c-1.537,0-3.151.663-3.151,2.662a1.7,1.7,0,0,0,1.716,1.936,2.3,2.3,0,0,0,1.823-.825l-.059.686h1.565l.7-4.947a2.107,2.107,0,0,0-2.44-2.166Zm.381,4.028c.034.3-.187,1.719-1.257,1.719a.651.651,0,0,1-.7-.678c0-.492.264-1.082,1.566-1.082a1.121,1.121,0,0,1,.386.041Zm0,0" transform="translate(-21.629 -26.168)"/>
        <path id="path4145" class="cls-6" d="M50.928,50.914c.4,0,2.689.1,2.689-2.284,0-2.231-2.118-1.79-2.118-2.687,0-.446.345-.587.976-.587.251,0,1.214.081,1.214.081l.224-1.586a8.208,8.208,0,0,0-1.64-.141c-1.315,0-2.649.53-2.649,2.345,0,2.056,2.225,1.85,2.225,2.716,0,.578-.622.625-1.1.625a5.748,5.748,0,0,1-1.578-.274l-.237,1.57a5.585,5.585,0,0,0,1.994.221Zm0,0" transform="translate(-29.715 -26.184)"/>
        <path id="path4139" class="cls-6" d="M134.407,40.129l-.383,2.4a2.344,2.344,0,0,0-1.716-.934c-1.628,0-2.985,1.984-2.985,4.264,0,1.472.724,2.914,2.2,2.914a2.213,2.213,0,0,0,1.654-.75l-.078.641h1.729l1.358-8.542-1.781,0Zm-.825,4.688c0,.949-.465,2.216-1.428,2.216-.64,0-.939-.543-.939-1.394,0-1.393.619-2.311,1.4-2.311.64,0,.968.444.968,1.49Zm0,0" transform="translate(-77.872 -24.037)"/>
        <path id="path4133" class="cls-6" d="M17.115,48.669,18.2,42.22l.159,6.449H19.58l2.284-6.449-1.012,6.449h1.819l1.4-8.553H21.26l-1.752,5.248-.091-5.248H16.823L15.4,48.669Zm0,0" transform="translate(-9.627 -24.031)"/>
        <path id="path4131" class="cls-6" d="M85.235,50.941c.517-2.973.613-5.387,1.848-4.946a6.961,6.961,0,0,1,.66-2.083,1.855,1.855,0,0,0-.343-.023c-.8,0-1.385,1.1-1.385,1.1l.158-1.009H84.519L83.41,50.941Zm0,0" transform="translate(-50.368 -26.292)"/>
        <path id="path4149_1_" class="cls-6" d="M110.585,43.682a6.08,6.08,0,0,0-2.153.4l-.258,1.547a5.558,5.558,0,0,1,1.937-.317c.662,0,1.145.075,1.145.619a1.166,1.166,0,0,1-.059.452s-.522-.044-.764-.044c-1.536,0-3.151.663-3.151,2.662A1.7,1.7,0,0,0,109,50.934a2.305,2.305,0,0,0,1.823-.825l-.058.686h1.564l.7-4.947a2.107,2.107,0,0,0-2.44-2.166Zm.381,4.028c.034.3-.187,1.719-1.258,1.719a.651.651,0,0,1-.695-.678c0-.492.264-1.082,1.566-1.082a1.125,1.125,0,0,1,.387.041Zm0,0" transform="translate(-64.668 -26.168)"/>
        <path id="path4131_1_" class="cls-6" d="M122.446,50.941c.517-2.973.613-5.387,1.847-4.946a6.976,6.976,0,0,1,.661-2.083,1.854,1.854,0,0,0-.342-.023c-.8,0-1.386,1.1-1.386,1.1l.158-1.009H121.73l-1.109,6.962Zm0,0" transform="translate(-72.659 -26.292)"/>
      </g>
    </g>
  </g>
</svg>
