<svg xmlns="http://www.w3.org/2000/svg" viewBox="0 0 218.594 55.863">
  <defs>
    <style>
      .cls-1 {
        fill: #139ad6;
      }

      .cls-2 {
        fill: #263b80;
      }

      .cls-3 {
        fill: #232c65;
      }
    </style>
  </defs>
  <g id="iconfinder__Paypal-39_1156727" transform="translate(-0.5 -24)">
    <g id="Group_103" data-name="Group 103" transform="translate(151.087 38.573)">
      <path id="Path_93" data-name="Path 93" class="cls-1" d="M62.29,28.2h-11.8a2.305,2.305,0,0,0-1.735,1.388L43.9,60.122a.92.92,0,0,0,1.041,1.041h6.246a.92.92,0,0,0,1.041-1.041l1.388-8.674a1.587,1.587,0,0,1,1.735-1.388h3.817q11.971,0,13.532-11.45a9.1,9.1,0,0,0-1.388-7.633A14,14,0,0,0,62.29,28.2m1.388,11.45c-.694,4.164-3.817,4.164-6.939,4.164H54.656l1.388-7.98c0-.347.347-.694,1.041-.694h.694c2.082,0,4.164,0,5.2,1.388.694.347.694,1.388.694,3.123" transform="translate(-43.9 -28.2)"/>
    </g>
    <g id="Group_104" data-name="Group 104" transform="translate(66.078 38.573)">
      <path id="Path_94" data-name="Path 94" class="cls-2" d="M37.79,28.2h-11.8a2.305,2.305,0,0,0-1.735,1.388L19.4,60.122a.92.92,0,0,0,1.041,1.041h5.552a2.305,2.305,0,0,0,1.735-1.388l1.388-8.327a1.587,1.587,0,0,1,1.735-1.388h3.817q11.971,0,13.532-11.45a9.1,9.1,0,0,0-1.388-7.633C44.729,29.241,41.953,28.2,37.79,28.2m1.388,11.45c-.694,4.164-3.817,4.164-6.939,4.164H30.5l1.388-7.98c0-.347.347-.694,1.041-.694h.694c2.082,0,4.164,0,5.2,1.388.347.347.694,1.388.347,3.123" transform="translate(-19.4 -28.2)"/>
    </g>
    <g id="Group_105" data-name="Group 105" transform="translate(93.272 48.982)">
      <path id="Path_95" data-name="Path 95" class="cls-2" d="M54.172,31.894H48.62c-.347,0-1.041.347-1.041.694l-.347,1.735-.347-.694C45.5,31.894,43.069,31.2,40.293,31.2A13.333,13.333,0,0,0,27.455,42.65a10.342,10.342,0,0,0,2.082,8.674C31.271,53.406,33.7,54.1,36.823,54.1a11.09,11.09,0,0,0,7.98-3.123l-.347,1.735A.92.92,0,0,0,45.5,53.753h5.2a2.305,2.305,0,0,0,1.735-1.388L55.56,32.935c-.347-.347-1.041-1.041-1.388-1.041M46.191,43A6.711,6.711,0,0,1,39.6,48.549a5.549,5.549,0,0,1-3.817-1.388A7.4,7.4,0,0,1,34.741,43,6.189,6.189,0,0,1,44.8,38.833,6.058,6.058,0,0,1,46.191,43" transform="translate(-27.237 -31.2)"/>
    </g>
    <g id="Group_106" data-name="Group 106" transform="translate(177.933 48.982)">
      <path id="Path_96" data-name="Path 96" class="cls-1" d="M78.572,31.894H73.02c-.347,0-1.041.347-1.041.694l-.347,1.735-.347-.694C69.9,31.894,67.469,31.2,64.693,31.2A13.333,13.333,0,0,0,51.855,42.65a10.342,10.342,0,0,0,2.082,8.674C55.671,53.406,58.1,54.1,61.223,54.1a11.09,11.09,0,0,0,7.98-3.123l-.347,1.735A.92.92,0,0,0,69.9,53.753h5.2a2.305,2.305,0,0,0,1.735-1.388L79.96,32.935c-.347-.347-.694-1.041-1.388-1.041M70.591,43A6.711,6.711,0,0,1,64,48.549a5.549,5.549,0,0,1-3.817-1.388A7.4,7.4,0,0,1,59.141,43,6.189,6.189,0,0,1,69.2,38.833,3.982,3.982,0,0,1,70.591,43" transform="translate(-51.637 -31.2)"/>
    </g>
    <g id="Group_110" data-name="Group 110" transform="translate(0.5 24)">
      <g id="Group_107" data-name="Group 107" transform="translate(123.176 25.676)">
        <path id="Path_97" data-name="Path 97" class="cls-2" d="M62.717,31.4h-5.9a1.8,1.8,0,0,0-1.388.694L47.8,43.891l-3.47-11.1a1.6,1.6,0,0,0-1.735-1.041H37.041c-.694,0-1.041.694-1.041,1.388l6.246,18.39-5.9,8.327c-.347.694,0,1.735.694,1.735h5.552a1.8,1.8,0,0,0,1.388-.694L63.064,33.482c1.041-1.041.347-2.082-.347-2.082" transform="translate(-36 -31.4)"/>
      </g>
      <g id="Group_108" data-name="Group 108" transform="translate(206.103 14.784)">
        <path id="Path_98" data-name="Path 98" class="cls-1" d="M64.758,29.091,59.9,60.319a.92.92,0,0,0,1.041,1.041H65.8a2.305,2.305,0,0,0,1.735-1.388l4.858-30.534A.92.92,0,0,0,71.35,28.4H65.8c-.347-.347-.694,0-1.041.694" transform="translate(-59.9 -28.261)"/>
      </g>
      <g id="Group_109" data-name="Group 109">
        <path id="Path_99" data-name="Path 99" class="cls-2" d="M40.4,28.164C37.973,25.388,33.463,24,27.217,24H9.868a2.977,2.977,0,0,0-2.429,2.082L.5,71.535A1.587,1.587,0,0,0,1.888,73.27H12.644l2.776-17v.694a2.977,2.977,0,0,1,2.429-2.082h5.2c10.062,0,17.7-4.164,20.125-15.614V38.226h0c.347-4.511-.347-7.286-2.776-10.062" transform="translate(-0.5 -24)"/>
      </g>
    </g>
    <g id="Group_111" data-name="Group 111" transform="translate(11.603 38.226)">
      <path id="Path_100" data-name="Path 100" class="cls-1" d="M34.928,28.1h0v1.041C32.5,40.938,24.865,44.755,14.8,44.755H9.6A2.977,2.977,0,0,0,7.17,46.837L3.7,68A1.271,1.271,0,0,0,5.088,69.39h9.021a1.943,1.943,0,0,0,2.082-1.735v-.347l1.735-10.756v-.694a1.943,1.943,0,0,1,2.082-1.735H21.4c8.674,0,15.614-3.47,17.349-13.879.694-4.164.347-7.98-1.735-10.409A3.554,3.554,0,0,0,34.928,28.1" transform="translate(-3.7 -28.1)"/>
    </g>
    <g id="Group_112" data-name="Group 112" transform="translate(15.42 36.144)">
      <path id="Path_101" data-name="Path 101" class="cls-3" d="M29.782,28.541c-.347,0-.694-.347-1.041-.347a1.275,1.275,0,0,1-1.041-.347A18.33,18.33,0,0,0,23.19,27.5H9.658a1.275,1.275,0,0,0-1.041.347,1.908,1.908,0,0,0-1.041,1.735L4.8,47.625v.694a2.977,2.977,0,0,1,2.429-2.082h5.2c10.062,0,17.7-4.164,20.125-15.614a1.275,1.275,0,0,1,.347-1.041c-.694-.347-1.041-.694-1.735-.694-1.041-.347-1.041-.347-1.388-.347" transform="translate(-4.8 -27.5)"/>
    </g>
  </g>
</svg>
