<svg xmlns="http://www.w3.org/2000/svg" viewBox="0 0 56.561 53.083">
  <defs>
    <style>
      .cls-1 {
        fill: #646ecb;
        fill-rule: evenodd;
      }
    </style>
  </defs>
  <g id="Group_35" data-name="Group 35" transform="translate(-0.001 0)">
    <path id="Path_50" data-name="Path 50" class="cls-1" d="M59.065,87.92,57.67,78.073H54.289L52.55,87.89a53.306,53.306,0,0,0,6.515.03M57.611,73.248H54.364v3.9h3.246Zm-8.662-7.162L35.5,71.367V84.038a63.189,63.189,0,0,0,6.141,2.012V76.764a.46.46,0,1,1,.92,0v9.529a55.457,55.457,0,0,0,9.065,1.529l1.814-10.243V73.248H49.061a.46.46,0,0,1-.46-.46Zm9.582,7.162V77.59l1.451,10.27a54.764,54.764,0,0,0,9.428-1.552V76.764a.46.46,0,1,1,.92,0v9.3a61.346,61.346,0,0,0,6.141-2.031V71.367L63.026,66.087l.344,6.679a.454.454,0,0,1-.434.479Zm-4.626-.92h8.527l-.307-5.95-1.047.935-.007.007h0l-.053.049,0,0h0l0,0-4.941,4.417-.008.007,0,.007h0l-.008.008h0l0,0,0,0,0,0,0,0-.007,0,0,0,0,0,0,0h0l-.007,0,0,0,0,0,0,0-.015.007h0l-.008,0,0,0h0l0,0h0l0,0h0l-.007,0h0l-.007,0h0l0,0h0l-.008,0h0l-.008,0-.008,0h-.011l0,0h-.011l-.008,0h-.011v0h-.023l-.007,0H55.77l-.011,0H55.74l-.011,0h-.041l0,0h-.019l-.011,0h-.011v0h-.011l-.007,0h0l-.007,0h-.007l0,0h-.008l0,0h-.008l0,0h0l-.007,0,0,0h0l0,0h-.008l0,0-.008,0h0l0,0h0l-.008,0,0,0,0,0h0L55.5,71.85h0l0,0,0,0-.007,0h0l-.008-.008h0l-.008-.007h0l-.007,0v0l-.008,0h0l-.008-.007h0l-.008-.008L51.3,67.822l0,0-1.447-1.391-.3,5.9H53.9Zm3.328-24.066A12.021,12.021,0,0,1,50.7,50.084a13.531,13.531,0,0,1-2.326-.2,13.054,13.054,0,0,1-1.713-.434,9.9,9.9,0,1,0,19.208.707c-.224.034-.452.056-.677.075-.374.034-.756.049-1.141.049a12.93,12.93,0,0,1-3.856-.572A10.546,10.546,0,0,1,57.233,48.262Zm3.216-5.012a6.193,6.193,0,0,1-2.4,4.409,9.657,9.657,0,0,0,2.435,1.133,12.031,12.031,0,0,0,3.572.527c.359,0,.714-.015,1.062-.045.176-.015.344-.03.516-.052a9.932,9.932,0,0,0-5.18-5.973ZM46.967,48.543a11.314,11.314,0,0,0,1.571.4,12.679,12.679,0,0,0,2.162.187,10.885,10.885,0,0,0,6.283-1.851,5.391,5.391,0,0,0,2.513-4.3.665.665,0,0,1,.015-.12,9.91,9.91,0,0,0-12.544,5.685Zm14.679,3.28H58.632a.273.273,0,0,0-.18.067l-.015.011a.284.284,0,0,0-.079.194v2.091a.269.269,0,0,0,.079.191.281.281,0,0,0,.195.082h3.014a.272.272,0,0,0,.18-.067l.015-.015a.268.268,0,0,0,.079-.191V52.1a.276.276,0,0,0-.079-.194A.27.27,0,0,0,61.646,51.823Zm-7.925,0H50.707a.273.273,0,0,0-.18.067l-.015.011a.287.287,0,0,0-.082.194v2.091a.272.272,0,0,0,.082.191.28.28,0,0,0,.194.082h3.014a.271.271,0,0,0,.18-.067l.015-.015a.269.269,0,0,0,.079-.191V52.1a.268.268,0,0,0-.273-.273Zm-3.014-.92h3.014a1.2,1.2,0,0,1,.842.348l.015.019a1.171,1.171,0,0,1,.329.684h2.539a1.224,1.224,0,0,1,.34-.7l.038-.03a1.183,1.183,0,0,1,.808-.318h3.014a1.2,1.2,0,0,1,.842.348l.019.019a1.193,1.193,0,0,1,.333.827v2.091a1.2,1.2,0,0,1-.348.841l-.038.034a1.2,1.2,0,0,1-.808.314H58.632a1.188,1.188,0,0,1-1.193-1.189V52.873H54.914v1.313a1.2,1.2,0,0,1-.348.841l-.038.034a1.2,1.2,0,0,1-.808.314H50.707a1.188,1.188,0,0,1-1.193-1.189V52.1a1.205,1.205,0,0,1,.348-.845l.037-.03A1.183,1.183,0,0,1,50.707,50.9Zm1.369,16.4,3.684,3.542L60.277,66.8V62.242a10.907,10.907,0,0,1-8.2,0Zm-23.4-16.1a.46.46,0,1,1,0-.92h6.949a.46.46,0,0,1,0,.92Zm0,2.816a.46.46,0,1,1,0-.92h6.949a.46.46,0,0,1,0,.92Zm23-13.834a.477.477,0,0,1,.333.894,11.87,11.87,0,0,0-7.7,11.115.479.479,0,1,1-.957,0,12.83,12.83,0,0,1,8.325-12.009ZM68.995,52.185a.479.479,0,1,1-.957,0,11.848,11.848,0,0,0-5.434-9.97.479.479,0,1,1,.516-.808,12.884,12.884,0,0,1,4.316,4.652A12.738,12.738,0,0,1,68.995,52.185ZM30.351,91.035a.46.46,0,0,1,0-.92H66.418a.46.46,0,1,1,0,.92Zm21.119,2.2a.46.46,0,0,1,0-.92H76.43a.46.46,0,0,1,0,.92Zm27.514,0a.46.46,0,0,1,0-.92H82.1a.46.46,0,1,1,0,.92Zm-50.055-.067a.46.46,0,1,1,0-.92H40.755a.46.46,0,1,1,0,.92Zm41-27.881a.457.457,0,1,1,.348-.845l9.394,3.871a.455.455,0,0,1,.28.419l.086,9.226a.458.458,0,0,1-.916.007l-.082-8.923ZM26,50.061V55.57a1.142,1.142,0,0,0,.333.808,1.161,1.161,0,0,0,.812.337h5.662a.946.946,0,0,1,.288.049,1,1,0,0,1,.243.123l2.382,1.477v-.729a.913.913,0,0,1,.269-.647.929.929,0,0,1,.651-.273h.52a1.143,1.143,0,0,0,1.144-1.145V50.061a1.124,1.124,0,0,0-.337-.808,1.137,1.137,0,0,0-.808-.337H27.146A1.143,1.143,0,0,0,26,50.061Z" transform="translate(-26.001 -40.147)"/>
  </g>
</svg>
