<svg xmlns="http://www.w3.org/2000/svg" xmlns:xlink="http://www.w3.org/1999/xlink" viewBox="0 0 29 29">
  <defs>
    <style>
      .cls-1 {
        fill: none;
      }

      .cls-2 {
        clip-path: url(#clip-path);
      }

      .cls-3 {
        fill: #646ecb;
      }
    </style>
    <clipPath id="clip-path">
      <rect class="cls-1" width="29" height="29"/>
    </clipPath>
  </defs>
  <g id="Group_228" data-name="Group 228" transform="translate(-35 -417)">
    <g id="Repeat_Grid_1" data-name="Repeat Grid 1" class="cls-2" transform="translate(35 417)">
      <g transform="translate(-221 -63)">
        <rect id="Rectangle_9" data-name="Rectangle 9" class="cls-3" width="8" height="8" transform="translate(221 63)"/>
      </g>
      <g transform="translate(-211 -63)">
        <rect id="Rectangle_9-2" data-name="Rectangle 9" class="cls-3" width="8" height="8" transform="translate(221 63)"/>
      </g>
      <g transform="translate(-201 -63)">
        <rect id="Rectangle_9-3" data-name="Rectangle 9" class="cls-3" width="8" height="8" transform="translate(221 63)"/>
      </g>
      <g transform="translate(-221 -53)">
        <rect id="Rectangle_9-4" data-name="Rectangle 9" class="cls-3" width="8" height="8" transform="translate(221 63)"/>
      </g>
      <g transform="translate(-211 -53)">
        <rect id="Rectangle_9-5" data-name="Rectangle 9" class="cls-3" width="8" height="8" transform="translate(221 63)"/>
      </g>
      <g transform="translate(-201 -53)">
        <rect id="Rectangle_9-6" data-name="Rectangle 9" class="cls-3" width="8" height="8" transform="translate(221 63)"/>
      </g>
      <g transform="translate(-221 -43)">
        <rect id="Rectangle_9-7" data-name="Rectangle 9" class="cls-3" width="8" height="8" transform="translate(221 63)"/>
      </g>
      <g transform="translate(-211 -43)">
        <rect id="Rectangle_9-8" data-name="Rectangle 9" class="cls-3" width="8" height="8" transform="translate(221 63)"/>
      </g>
      <g transform="translate(-201 -43)">
        <rect id="Rectangle_9-9" data-name="Rectangle 9" class="cls-3" width="8" height="8" transform="translate(221 63)"/>
      </g>
    </g>
  </g>
</svg>
