<svg xmlns="http://www.w3.org/2000/svg" viewBox="0 0 56.385 51.651">
  <g id="iconfinder_icons_Message_1564513" transform="translate(0 -1)">
    <path id="message" d="M46.987,1H9.4A9.425,9.425,0,0,0,0,10.4V33.891a9.425,9.425,0,0,0,9.4,9.4v7.048a2.35,2.35,0,0,0,3.994,1.645l8.693-8.693h24.9a9.425,9.425,0,0,0,9.4-9.4V10.4A9.425,9.425,0,0,0,46.987,1Zm-14.1,28.192h-14.1a2.349,2.349,0,0,1,0-4.7h14.1a2.349,2.349,0,1,1,0,4.7Zm4.7-9.4H18.795a2.22,2.22,0,0,1-2.349-2.349A2.22,2.22,0,0,1,18.795,15.1H37.59a2.22,2.22,0,0,1,2.349,2.349A2.22,2.22,0,0,1,37.59,19.795Z" transform="translate(0 0)"/>
  </g>
</svg>
