<svg xmlns="http://www.w3.org/2000/svg" viewBox="0 0 50.494 50.108">
  <g id="iconfinder_performance-clock-speed_353431_1_" data-name="iconfinder_performance-clock-speed_353431 (1)" transform="translate(-6.711 -6.822)">
    <path id="Path_115" data-name="Path 115" d="M28.371,31.879a3.955,3.955,0,0,0,7.48,1.8l.011.01L43.1,20.63l-12.71,7.794.012.012A3.952,3.952,0,0,0,28.371,31.879Z"/>
    <path id="Path_116" data-name="Path 116" d="M48.315,12.981A25.2,25.2,0,0,0,33,6.822v6.027a17.089,17.089,0,0,1,10.9,4.384Z"/>
    <path id="Path_117" data-name="Path 117" d="M51.146,30h6.02a24.248,24.248,0,0,0-6.4-14.97l-4.259,4.233A19.236,19.236,0,0,1,51.146,30Z"/>
    <path id="Path_118" data-name="Path 118" d="M51.174,33A19.131,19.131,0,0,1,32.132,50.931,19.376,19.376,0,0,1,12.711,31.853,19.481,19.481,0,0,1,30,12.85V6.823A24.97,24.97,0,0,0,6.711,31.879,25.224,25.224,0,0,0,31.974,56.931,25.524,25.524,0,0,0,57.205,33Z"/>
  </g>
</svg>
