<svg xmlns="http://www.w3.org/2000/svg" viewBox="0 0 61.487 46.154">
  <defs>
    <style>
      .cls-1 {
        fill-rule: evenodd;
      }
    </style>
  </defs>
  <path id="iconfinder_video-24_103168" class="cls-1" d="M57.66,49.114v.041l-14.106-14.1V43.99a5.124,5.124,0,0,1-5.124,5.124H5.124A5.124,5.124,0,0,1,0,43.99V41.428H0V10.684H0V8.122A5.124,5.124,0,0,1,5.124,3H38.43a5.124,5.124,0,0,1,5.124,5.121V17.13L57.644,3.039V3a3.842,3.842,0,0,1,3.843,3.84v38.43A3.844,3.844,0,0,1,57.66,49.114Z" transform="translate(0 -3.001)"/>
</svg>
