<svg xmlns="http://www.w3.org/2000/svg" viewBox="0 0 28.818 26.432">
  <defs>
    <style>
      .cls-1 {
        fill: #231f20;
      }
    </style>
  </defs>
  <g id="iconfinder_back-end_backward_programming_back_back_end_end_development_4047356" transform="translate(-151.961 -180.784)">
    <path id="Path_67" data-name="Path 67" class="cls-1" d="M179.781,180.784H153.457a1.246,1.246,0,0,0-1.242,1.242v14.965h28.808V182.026A1.246,1.246,0,0,0,179.781,180.784Zm-19.15,1.569h.793a.518.518,0,0,1,0,1.035h-.793a.518.518,0,0,1,0-1.035Zm2.992,3.876a.517.517,0,1,1,0,1.035h-4.684a.517.517,0,1,1,0-1.035Zm-2.342,2.756a.519.519,0,0,1-.518.518h-1.825a.518.518,0,0,1,0-1.035h1.825A.519.519,0,0,1,161.28,188.985Zm-3.755-6.632h.793a.518.518,0,0,1,0,1.035h-.793a.518.518,0,1,1,0-1.035Zm-.471,4.393a.519.519,0,0,1-.518.518h-2.07a.517.517,0,1,1,0-1.035h2.07A.519.519,0,0,1,157.055,186.746Zm0,2.239a.519.519,0,0,1-.518.518h-.7a.518.518,0,0,1,0-1.035h.7A.519.519,0,0,1,157.055,188.985Zm-2.634-6.632h.793a.518.518,0,1,1,0,1.035h-.793a.518.518,0,1,1,0-1.035Zm-.471,8.871a.519.519,0,0,1,.518-.518h4.866a.518.518,0,1,1,0,1.035h-4.866A.519.519,0,0,1,153.949,191.224Zm2.588,2.756h-.7a.518.518,0,1,1,0-1.035h.7a.518.518,0,1,1,0,1.035Zm4.226,0h-1.825a.518.518,0,0,1,0-1.035h1.825a.518.518,0,1,1,0,1.035Zm5.923,0H163.33a.518.518,0,0,1,0-1.035h3.356a.518.518,0,0,1,0,1.035Zm0-2.239H161.8a.518.518,0,0,1,0-1.035h4.888a.518.518,0,0,1,0,1.035Zm0-2.239h-3.459a.518.518,0,1,1,0-1.035h3.459a.518.518,0,0,1,0,1.035Zm5.1,2.121a.518.518,0,1,1-.732.732l-1.92-1.92a.519.519,0,0,1,0-.732l1.92-1.92a.518.518,0,0,1,.732.732l-1.554,1.554Zm3.734-4.542-1.776,6.259a.519.519,0,0,1-.639.357h0a.519.519,0,0,1-.357-.639l1.776-6.259a.518.518,0,1,1,1,.283Zm3.614,3.354-1.92,1.92a.518.518,0,1,1-.732-.732l1.554-1.554-1.554-1.554a.518.518,0,0,1,.732-.732l1.92,1.92A.519.519,0,0,1,179.138,190.435Z" transform="translate(-0.243 0)"/>
    <path id="Path_68" data-name="Path 68" class="cls-1" d="M381.023,762.063h-9.148a.77.77,0,0,0-.768.768v1.6H381.79v-1.6A.77.77,0,0,0,381.023,762.063Z" transform="translate(-210.073 -557.213)"/>
    <ellipse id="Ellipse_3" data-name="Ellipse 3" class="cls-1" cx="0.723" cy="0.723" rx="0.723" ry="0.723" transform="translate(165.614 200.24) rotate(-4.066)"/>
    <path id="Path_69" data-name="Path 69" class="cls-1" d="M151.961,596.075l.009,2.587a1.246,1.246,0,0,0,1.247,1.237l4.261-.016,0,1.192a.77.77,0,0,0,.77.765l16.267-.06a.77.77,0,0,0,.765-.771l0-1.192,4.261-.016a1.246,1.246,0,0,0,1.238-1.246l-.009-2.587Zm16.194,2.963a.277.277,0,0,1-.321.274,1.492,1.492,0,0,1-.154.36.279.279,0,0,1,.028.024h0a.277.277,0,0,1,0,.393l-.17.171a.278.278,0,0,1-.393,0h0a.29.29,0,0,1-.031-.038,1.5,1.5,0,0,1-.335.135.274.274,0,0,1,.006.055.278.278,0,0,1-.278.278h-.241a.278.278,0,0,1-.272-.333,1.494,1.494,0,0,1-.356-.148.277.277,0,0,1-.434.053l-.17-.17a.278.278,0,0,1,0-.393.281.281,0,0,1,.051-.04,1.494,1.494,0,0,1-.148-.354.272.272,0,0,1-.074.01.278.278,0,0,1-.278-.278V598.8a.278.278,0,0,1,.278-.278.285.285,0,0,1,.067.009,1.491,1.491,0,0,1,.143-.355.278.278,0,0,1-.059-.438l.17-.17a.278.278,0,0,1,.393,0,.272.272,0,0,1,.039.049,1.492,1.492,0,0,1,.378-.161.278.278,0,0,1,.272-.333h.241a.278.278,0,0,1,.278.278.281.281,0,0,1-.006.056,1.5,1.5,0,0,1,.358.148.3.3,0,0,1,.029-.034.278.278,0,0,1,.393,0l.17.17a.278.278,0,0,1,0,.393.283.283,0,0,1-.035.03,1.494,1.494,0,0,1,.148.362l.037,0a.278.278,0,0,1,.278.278v.241Z" transform="translate(0 -397.997)"/>
  </g>
</svg>
