<svg xmlns="http://www.w3.org/2000/svg" viewBox="0 0 38.243 46.5">
  <defs>
    <style>
      .cls-1 {
        fill: #646ecb;
      }
    </style>
  </defs>
  <g id="iconfinder_SEO_courses_training_flipchart_969264" transform="translate(-10 -5.5)">
    <g id="Group_39" data-name="Group 39" transform="translate(10 5.5)">
      <g id="Group_38" data-name="Group 38">
        <path id="Path_51" data-name="Path 51" class="cls-1" d="M47.374,10.28a.872.872,0,0,0,.869-.869V8.542a.872.872,0,0,0-.869-.869H29.556V5.935a.435.435,0,1,0-.869,0V7.673H10.869A.872.872,0,0,0,10,8.542v.869a.872.872,0,0,0,.869.869h.869V34.617h-.869a.872.872,0,0,0-.869.869v.869a.872.872,0,0,0,.869.869H28.687v2.428l-5.642,5.641a1.712,1.712,0,0,0-.877-.246,1.757,1.757,0,1,0,1.492.86l5.026-5.026v7.7a1.738,1.738,0,1,0,.869,0v-7.7l5.026,5.027a1.715,1.715,0,0,0-.246.877,1.738,1.738,0,1,0,1.738-1.738,1.718,1.718,0,0,0-.878.246l-5.641-5.641V37.224H47.374a.872.872,0,0,0,.869-.869v-.869a.872.872,0,0,0-.869-.869H46.5V10.28ZM22.168,47.654a.869.869,0,1,1,.869-.869A.869.869,0,0,1,22.168,47.654Zm14.776-.869a.869.869,0,1,1-.869-.869A.869.869,0,0,1,36.944,46.785Zm-6.953,3.477a.869.869,0,1,1-.869-.869A.869.869,0,0,1,29.991,50.262ZM10.869,9.411V8.542h36.5v.869h-36.5Zm36.5,26.075v.869h-36.5v-.869h36.5Zm-1.738-.869H12.607V10.28H45.636Z" transform="translate(-10 -5.5)"/>
        <path id="Path_52" data-name="Path 52" class="cls-1" d="M19.521,29.561h2.39c.852,0,2.173-1.691,2.173-1.691s.145,1.691.869,1.691h.869a.821.821,0,0,1-.869-.822V22.607A2.615,2.615,0,0,0,22.346,20H20.607A2.615,2.615,0,0,0,18,22.607h.869a1.891,1.891,0,0,1,1.738-1.738h1.738c1.593,0,1.738,1.485,1.738,2.607H21.042A3.042,3.042,0,0,0,18,26.519V28.04A1.521,1.521,0,0,0,19.521,29.561Zm-.652-3.042a2.175,2.175,0,0,1,2.173-2.173h3.042V26.46l-.685.874a4.879,4.879,0,0,1-1.488,1.358h-2.39a.652.652,0,0,1-.652-.652Z" transform="translate(-11.047 -7.397)"/>
        <path id="Path_53" data-name="Path 53" class="cls-1" d="M38.869,28.361a2.592,2.592,0,0,0,1.738.676h1.738a2.608,2.608,0,0,0,2.607-2.607V22.084a2.608,2.608,0,0,0-2.607-2.607H40.607a2.592,2.592,0,0,0-1.738.676V16H38V29.037h.869Zm0-7.038.581-.524a1.716,1.716,0,0,1,1.157-.453h1.738a1.74,1.74,0,0,1,1.738,1.738V26.43a1.74,1.74,0,0,1-1.738,1.738H40.607a1.716,1.716,0,0,1-1.157-.453l-.581-.524Z" transform="translate(-13.664 -6.874)"/>
        <path id="Path_54" data-name="Path 54" class="cls-1" d="M31.042,28.453h.869V25.411h3.042v-.869H31.911V21.5h-.869v3.042H28v.869h3.042Z" transform="translate(-12.355 -7.593)"/>
      </g>
    </g>
  </g>
</svg>
